<svg xmlns="http://www.w3.org/2000/svg" viewBox="0 0 1305 1205"><path d="M0.00 602.50 L0.00 0.00 L652.50 0.00 L1305.00 0.00 L1305.00 602.50 L1305.00 1205.00 L652.50 1205.00 L0.00 1205.00 L0.00 602.50 Z M623.76 892.40 C627.68 891.61 633.00 886.72 633.00 883.91 C633.00 882.69 631.81 879.27 630.36 876.30 C627.90 871.27 627.80 870.61 629.02 866.70 C630.45 862.09 634.84 855.88 639.43 852.00 C671.26 825.07 748.42 799.17 822.50 790.55 C850.18 787.33 899.34 787.01 921.00 789.91 C948.84 793.64 969.25 798.07 981.91 803.14 C983.24 803.67 987.20 804.37 990.70 804.70 C998.43 805.42 1001.39 804.12 1004.09 798.82 C1006.53 794.05 1006.50 790.67 1003.99 785.48 C1000.96 779.22 995.26 774.20 985.13 768.86 C980.10 766.21 975.97 763.71 975.95 763.31 C975.89 762.01 991.30 759.34 1027.00 754.46 C1034.89 753.38 1046.14 752.75 1057.50 752.74 C1079.19 752.73 1087.28 754.46 1101.84 762.25 C1110.03 766.62 1111.74 767.18 1115.58 766.74 C1121.75 766.05 1124.80 763.68 1127.71 757.31 C1129.93 752.47 1130.19 750.80 1129.79 743.65 C1129.27 734.09 1127.18 729.29 1120.83 723.07 C1103.40 705.98 1069.46 705.73 1021.50 722.32 C1000.83 729.47 996.04 731.48 976.60 741.18 C963.73 747.60 956.61 752.08 955.14 754.71 C954.29 756.24 953.54 756.21 945.36 754.24 C926.05 749.59 896.11 745.27 866.00 742.78 C834.17 740.15 671.03 742.12 639.50 745.51 C636.75 745.81 625.27 746.49 614.00 747.04 C553.49 749.95 479.54 756.08 439.50 761.51 C421.11 764.00 414.74 764.82 409.00 765.46 C405.98 765.80 402.82 766.27 402.00 766.51 C401.18 766.76 397.57 767.39 394.00 767.92 C363.55 772.42 325.00 780.77 294.50 789.48 C273.03 795.61 260.00 794.56 260.00 786.70 C260.00 778.11 270.59 771.21 288.91 767.85 C297.88 766.20 303.13 765.95 323.17 766.20 C345.75 766.49 346.96 766.41 349.60 764.44 C353.18 761.78 353.75 760.00 351.02 760.00 C348.29 760.00 345.00 758.27 345.00 756.83 C345.00 756.10 346.51 755.94 349.46 756.34 C354.70 757.06 355.69 756.07 353.95 751.89 C352.76 749.01 348.53 746.16 343.00 744.51 C341.62 744.10 334.65 741.51 327.50 738.74 C311.40 732.52 300.01 730.02 284.49 729.30 C260.76 728.21 241.14 733.19 226.46 744.03 C213.66 753.49 205.83 767.12 205.90 779.85 C205.97 794.92 209.26 802.34 220.55 812.90 C227.92 819.79 237.53 824.76 250.09 828.15 C257.11 830.05 261.06 830.42 274.00 830.44 C291.58 830.47 297.24 829.66 322.50 823.53 C363.58 813.55 384.79 808.91 415.50 803.14 C439.34 798.67 471.01 793.99 470.99 794.95 C470.98 795.25 467.27 797.47 462.74 799.87 C443.74 809.94 427.85 823.49 420.77 835.65 C413.10 848.80 413.48 864.71 421.56 869.03 C424.97 870.85 431.88 870.65 435.64 868.62 C437.21 867.77 442.40 863.54 447.16 859.23 C459.17 848.36 471.76 840.16 490.50 831.01 C510.33 821.32 515.44 819.21 535.50 812.42 C568.53 801.24 602.50 793.87 645.50 788.58 C663.80 786.33 682.28 784.68 684.41 785.11 C685.54 785.34 681.22 787.50 673.91 790.36 C632.04 806.76 605.08 827.08 596.09 849.00 C594.78 852.21 593.61 857.68 593.28 862.12 C592.79 868.93 593.02 870.36 595.42 875.62 C599.56 884.67 604.01 888.60 613.50 891.60 C618.20 893.09 619.72 893.21 623.76 892.40 Z M624.56 884.47 C623.49 883.66 621.92 883.00 621.07 883.00 C617.81 883.00 609.39 877.79 606.99 874.28 C604.91 871.24 604.50 869.47 604.50 863.52 C604.50 853.21 608.53 845.67 619.90 834.70 C636.76 818.45 651.62 810.36 693.00 794.92 C710.39 788.43 745.50 779.25 766.50 775.71 C773.27 774.57 774.50 774.07 774.50 772.43 C774.50 770.69 773.61 770.47 765.50 770.15 C747.33 769.45 674.07 773.99 646.50 777.54 C633.86 779.17 617.64 781.43 607.50 782.99 C594.93 784.92 560.78 792.87 548.00 796.85 C494.53 813.48 460.18 831.22 435.87 854.75 C428.56 861.83 426.49 861.65 426.53 853.97 C426.56 847.46 429.09 841.75 435.23 834.36 C444.17 823.59 463.87 810.11 480.50 803.39 C484.90 801.61 491.71 798.82 495.62 797.17 C502.23 794.41 508.13 792.50 523.50 788.17 C528.62 786.73 529.54 786.12 529.76 783.99 C530.29 778.88 529.58 778.70 513.38 779.95 C479.88 782.53 452.04 785.68 428.50 789.54 C412.72 792.13 368.36 800.94 361.50 802.84 C357.65 803.91 348.20 806.21 340.50 807.95 C332.80 809.69 319.98 812.65 312.00 814.54 C287.27 820.39 278.24 821.09 261.05 818.51 C245.73 816.21 241.20 814.46 230.79 806.80 C220.39 799.16 216.42 790.89 217.22 778.52 C217.70 771.08 219.42 766.75 224.17 761.00 C229.26 754.82 231.06 753.32 238.43 749.11 C256.19 738.95 285.12 737.14 309.92 744.64 C319.61 747.57 341.91 755.58 342.77 756.44 C344.16 757.83 341.77 758.15 338.87 756.95 C334.66 755.20 299.61 755.14 288.19 756.86 C263.73 760.54 247.82 773.32 249.24 788.14 C249.83 794.32 254.05 799.91 259.60 801.89 C269.81 805.52 287.74 804.14 304.00 798.46 C312.04 795.65 319.14 793.72 329.50 791.53 C333.90 790.60 340.43 789.20 344.00 788.42 C366.26 783.59 376.06 781.70 390.87 779.41 C414.90 775.69 425.27 774.23 436.00 773.08 C441.23 772.51 452.25 771.15 460.50 770.04 C468.75 768.94 480.23 767.58 486.00 767.02 C491.77 766.46 501.23 765.55 507.00 764.99 C520.12 763.73 557.29 761.27 583.00 759.98 C593.73 759.43 608.35 758.56 615.50 758.03 C622.65 757.50 640.20 756.58 654.50 755.99 C668.80 755.40 688.15 754.46 697.50 753.90 C725.17 752.23 819.72 751.57 842.50 752.88 C887.89 755.50 915.05 758.72 940.50 764.49 C954.29 767.62 952.93 767.74 952.70 763.37 C952.47 758.91 954.34 757.09 954.82 761.30 C955.03 763.14 956.01 764.50 957.64 765.24 C959.37 766.03 959.98 766.96 959.64 768.25 C959.34 769.43 959.77 770.31 960.83 770.63 C968.38 772.94 979.40 777.74 983.70 780.59 C988.84 784.00 996.00 791.69 996.00 793.79 C996.00 795.75 994.10 796.11 991.78 794.61 C987.03 791.54 955.16 783.94 934.79 781.01 C880.73 773.24 826.27 775.83 765.50 789.04 C753.13 791.73 731.65 797.42 725.00 799.76 C721.98 800.83 717.70 802.03 715.50 802.44 C713.30 802.85 711.05 803.53 710.50 803.95 C709.95 804.37 706.80 805.65 703.50 806.78 C681.60 814.31 654.71 827.24 640.49 837.08 C622.84 849.27 614.20 863.97 617.96 875.38 C619.00 878.53 619.67 879.08 623.08 879.63 C626.58 880.19 627.00 880.56 627.00 883.13 C627.00 886.44 627.10 886.39 624.56 884.47 Z M1106.50 752.03 C1102.08 749.12 1097.34 747.24 1088.50 744.87 C1076.81 741.75 1075.98 741.67 1056.50 741.74 C1036.00 741.83 1019.36 743.55 996.03 747.99 C990.32 749.08 985.47 749.80 985.26 749.59 C984.90 749.24 989.18 747.10 1000.86 741.79 C1016.22 734.81 1045.81 725.48 1060.62 722.96 C1082.12 719.30 1102.23 721.44 1110.53 728.28 C1115.50 732.38 1118.98 740.00 1118.99 746.82 C1119.01 757.06 1116.03 758.31 1106.50 752.03 Z M420.38 737.75 C422.48 735.85 423.92 731.26 429.55 708.50 C433.22 693.65 437.27 678.12 438.54 674.00 C439.81 669.88 442.01 661.72 443.42 655.88 C444.83 650.04 446.63 643.73 447.42 641.84 C449.53 636.79 469.86 618.87 487.44 606.57 C506.58 593.17 519.68 588.17 527.30 591.35 C537.90 595.78 533.51 607.30 510.24 636.14 C508.18 638.69 501.28 647.24 494.90 655.14 C488.53 663.04 481.68 671.98 479.69 675.00 C469.02 691.22 471.70 714.37 485.27 723.25 C492.48 727.97 498.71 729.51 510.50 729.47 C519.00 729.44 522.07 728.94 531.00 726.11 C536.77 724.28 543.52 721.61 546.00 720.17 C575.73 702.90 607.89 673.40 653.95 621.15 C659.93 614.36 661.60 614.32 662.64 620.96 C663.57 626.88 661.63 629.90 645.00 648.37 C633.40 661.25 631.56 663.38 624.64 672.00 C615.06 683.92 613.66 687.34 613.57 699.00 C613.49 709.46 614.41 712.12 620.61 719.39 C626.89 726.75 633.46 729.01 649.00 729.16 C664.03 729.31 677.52 724.19 698.73 710.30 C703.25 707.33 707.53 704.36 708.24 703.70 C710.67 701.42 721.83 693.00 722.42 693.00 C722.74 693.00 723.00 694.49 723.00 696.31 C723.00 701.63 726.87 711.63 730.18 714.87 C731.85 716.50 735.97 719.31 739.35 721.12 C745.07 724.17 746.30 724.43 757.11 724.82 C774.28 725.44 781.99 723.61 800.50 714.55 C814.67 707.62 828.25 699.19 841.25 689.27 C845.93 685.70 847.00 685.23 847.00 686.73 C847.00 689.94 850.00 700.34 852.13 704.50 C856.61 713.28 867.12 720.55 879.03 723.10 C887.17 724.85 905.02 723.74 913.00 721.00 C921.77 717.98 939.38 708.82 945.90 703.89 C948.82 701.68 951.30 700.01 951.42 700.19 C951.54 700.36 952.22 702.51 952.93 704.98 C955.90 715.30 963.48 722.28 974.23 724.59 C982.02 726.26 1002.62 725.72 1009.03 723.67 C1023.97 718.91 1039.85 711.14 1053.91 701.71 C1082.82 682.31 1106.57 661.63 1128.22 637.00 C1139.86 623.75 1144.00 617.13 1144.00 611.78 C1143.99 607.18 1140.72 602.33 1136.41 600.53 C1132.18 598.76 1122.68 598.52 1118.24 600.07 C1116.45 600.69 1111.12 605.51 1105.34 611.75 C1070.84 648.98 1034.91 676.00 1019.92 676.00 C1017.98 676.00 1015.86 675.46 1015.20 674.80 C1011.92 671.52 1013.82 668.19 1042.50 627.00 C1047.66 619.58 1055.30 608.55 1059.46 602.50 C1063.63 596.45 1070.24 586.89 1074.16 581.27 C1082.20 569.73 1083.73 564.24 1080.59 558.18 C1077.35 551.91 1071.75 550.62 1053.00 551.82 C1036.96 552.85 1033.03 554.50 1027.57 562.45 C1026.30 564.31 1025.96 564.12 1021.02 558.71 C1011.02 547.77 994.42 542.29 975.00 543.50 C961.97 544.32 947.29 549.38 930.00 559.00 C916.20 566.67 892.06 588.65 878.92 605.50 C867.66 619.94 838.11 647.23 822.12 657.97 C814.22 663.27 799.26 670.26 792.20 671.95 C787.44 673.08 786.69 673.03 784.95 671.45 C782.47 669.21 782.50 667.90 785.14 662.72 C787.23 658.62 803.51 634.01 816.70 615.00 C820.33 609.77 825.14 602.51 827.40 598.85 C829.65 595.19 833.71 588.89 836.42 584.85 C839.12 580.81 843.13 574.80 845.33 571.50 C849.98 564.51 868.97 536.43 870.63 534.09 C871.25 533.22 875.16 527.29 879.33 520.92 C883.49 514.54 887.48 508.86 888.20 508.29 C888.93 507.70 899.51 506.83 912.29 506.29 C939.26 505.16 938.63 505.42 943.67 493.60 C948.29 482.79 948.27 477.07 943.60 472.40 L940.20 469.00 L926.60 469.00 C917.33 469.00 913.00 468.65 913.00 467.89 C913.00 467.29 914.28 465.15 915.85 463.14 C919.93 457.94 936.34 433.25 938.87 428.51 C940.04 426.32 941.00 422.77 941.00 420.61 C941.00 417.31 940.34 416.06 936.83 412.73 L932.66 408.76 L914.86 409.18 L897.06 409.60 L893.28 412.59 C891.20 414.24 886.72 419.84 883.33 425.04 C873.42 440.22 856.02 465.30 853.88 467.50 C853.32 468.07 843.59 468.71 831.02 469.00 C804.25 469.61 805.41 469.06 799.24 484.01 C794.36 495.82 794.34 499.04 799.16 503.65 C802.06 506.44 802.40 506.51 815.06 506.83 C822.18 507.01 828.00 507.31 828.00 507.48 C828.00 507.66 823.47 514.49 817.92 522.66 C812.38 530.82 795.84 555.46 781.17 577.42 C754.83 616.85 754.33 617.52 740.50 631.45 C724.16 647.93 715.27 655.83 701.50 666.17 C690.55 674.39 687.93 676.00 685.54 676.00 C683.60 676.00 684.57 674.32 692.96 663.07 C696.01 658.98 699.40 654.17 700.50 652.37 C701.60 650.57 704.79 645.37 707.59 640.80 C713.88 630.55 715.00 627.35 715.00 619.59 C715.00 609.57 711.28 603.30 698.27 591.44 C683.64 578.10 684.27 579.31 687.95 571.61 C691.36 564.47 691.72 560.29 689.48 553.95 C681.32 530.82 650.68 528.81 635.19 550.39 C630.05 557.55 628.06 563.27 627.84 571.50 C627.67 578.25 627.99 579.59 631.40 586.49 C633.46 590.66 635.00 594.47 634.82 594.96 C634.64 595.45 629.46 601.62 623.29 608.67 C606.35 628.06 579.55 654.16 567.50 662.98 C564.20 665.39 559.36 669.16 556.74 671.35 C554.13 673.53 551.71 675.05 551.37 674.71 C550.73 674.06 556.91 665.15 559.50 663.00 C560.33 662.31 562.21 659.55 563.67 656.87 C565.12 654.19 566.70 652.00 567.16 652.00 C567.62 652.00 568.00 651.56 568.00 651.03 C568.00 650.50 571.35 644.09 575.44 636.78 C579.54 629.48 584.09 619.90 585.56 615.50 C587.98 608.23 588.18 606.49 587.74 596.50 C587.20 584.31 585.27 578.15 579.37 569.93 C565.96 551.23 543.91 543.72 515.00 548.01 C504.52 549.56 487.03 555.40 477.26 560.61 C472.73 563.02 468.64 565.00 468.18 565.00 C467.12 565.00 468.66 557.95 474.42 536.50 C476.93 527.15 479.59 517.25 480.32 514.50 L481.67 509.50 L568.75 509.50 L655.84 509.50 L658.42 507.08 C659.92 505.66 661.00 503.56 661.00 502.02 C661.00 499.72 654.99 479.93 652.19 473.00 C651.63 471.62 650.20 467.95 649.00 464.82 C645.49 455.65 648.96 456.10 579.32 455.93 C546.42 455.85 512.75 455.65 504.50 455.49 C496.25 455.33 434.74 454.87 367.80 454.47 L246.10 453.74 L243.05 456.80 C241.07 458.78 240.01 460.83 240.02 462.67 C240.04 464.23 243.07 474.01 246.77 484.41 C251.91 498.85 254.09 503.75 256.00 505.14 C258.35 506.85 263.33 507.00 338.50 507.59 C382.50 507.94 418.63 508.33 418.78 508.47 C418.93 508.61 418.55 510.02 417.93 511.61 C417.31 513.20 416.17 516.98 415.39 520.00 C413.28 528.15 411.98 530.93 410.53 530.37 C408.86 529.73 407.68 535.80 408.57 540.50 C409.15 543.61 408.98 544.00 407.10 544.00 C405.93 544.00 404.19 543.56 403.24 543.02 C402.28 542.48 397.90 540.70 393.50 539.06 C365.43 528.58 332.85 527.16 304.00 535.16 C294.36 537.83 278.35 545.03 270.02 550.43 C262.19 555.50 248.12 568.56 243.01 575.49 C238.15 582.08 229.43 599.95 227.38 607.50 C224.86 616.79 224.41 637.73 226.50 648.04 C228.38 657.31 229.43 659.85 236.03 671.00 C252.05 698.08 284.56 711.49 319.62 705.47 C335.99 702.66 360.81 693.54 370.10 686.93 C374.14 684.05 374.15 683.67 369.93 699.71 C366.56 712.52 366.36 719.85 369.26 724.27 C370.94 726.84 383.90 732.76 398.00 737.40 C408.07 740.72 416.94 740.86 420.38 737.75 Z M409.70 726.75 C410.54 722.22 408.12 720.81 398.93 720.49 C390.87 720.22 382.04 718.49 379.14 716.62 C377.41 715.51 378.43 709.94 384.39 688.00 C387.77 675.53 387.73 673.65 384.02 671.02 L381.04 668.90 L364.39 677.54 C340.97 689.70 333.13 692.40 313.68 694.97 C302.17 696.49 294.51 696.23 285.23 694.00 C263.05 688.69 245.90 672.83 238.54 650.85 C236.06 643.47 235.75 641.11 235.82 630.50 C235.87 623.07 236.49 616.29 237.46 612.69 C246.83 577.60 277.47 551.19 317.91 543.34 C327.30 541.51 352.22 540.96 362.50 542.34 C373.06 543.76 388.11 548.07 398.33 552.60 C403.79 555.02 409.12 557.00 410.18 557.00 C414.33 557.00 417.71 554.20 418.88 549.79 C419.50 547.43 421.38 540.55 423.05 534.50 C424.71 528.45 426.95 519.53 428.02 514.68 C429.09 509.83 430.22 505.46 430.52 504.96 C431.50 503.38 428.05 498.05 425.73 497.55 C423.50 497.08 331.97 496.08 286.48 496.03 L262.46 496.00 L257.72 481.75 C255.11 473.91 252.98 466.90 252.99 466.18 C253.00 465.09 264.77 464.95 319.75 465.42 C356.46 465.73 431.27 466.24 486.00 466.54 C540.73 466.85 597.42 467.19 612.00 467.30 L638.49 467.50 L643.22 481.50 C645.82 489.20 648.23 496.34 648.58 497.37 C649.19 499.19 647.94 499.23 605.71 498.62 C581.79 498.27 542.94 497.99 519.39 497.98 L476.58 497.96 L473.91 500.73 C471.42 503.33 470.11 507.34 465.99 525.00 C463.75 534.59 457.68 557.51 455.30 565.36 C452.85 573.45 452.75 574.46 454.09 576.85 C454.90 578.29 456.82 579.92 458.36 580.46 C460.68 581.27 461.94 580.98 465.82 578.69 C474.96 573.32 488.84 567.04 499.36 563.52 C519.47 556.79 537.60 556.21 550.88 561.88 C563.70 567.34 568.55 571.85 574.72 584.00 C576.11 586.74 576.49 589.90 576.47 598.50 C576.44 608.60 576.17 610.15 573.16 617.50 C569.53 626.35 567.01 630.57 550.24 655.74 C536.98 675.65 535.69 679.42 540.53 684.26 C544.27 688.00 550.53 688.03 556.91 684.35 C562.11 681.35 572.54 673.41 578.50 667.92 C580.70 665.90 585.20 662.01 588.50 659.29 C591.80 656.57 595.88 652.80 597.57 650.92 C599.25 649.04 603.51 644.80 607.03 641.50 C613.51 635.41 629.37 617.92 640.75 604.31 C648.21 595.39 648.58 593.09 643.53 587.04 C636.42 578.53 636.31 568.47 643.20 558.02 C647.02 552.24 652.09 548.35 658.18 546.54 C662.35 545.30 663.64 545.30 667.79 546.53 C675.80 548.91 680.66 555.76 679.40 562.87 C679.05 564.87 677.53 568.75 676.03 571.50 C673.67 575.81 673.41 577.05 674.18 580.48 C675.15 584.86 677.59 587.81 686.30 595.12 C698.01 604.97 705.00 614.62 705.00 620.97 C705.00 625.36 697.39 638.00 679.99 662.50 C677.25 666.35 674.50 671.14 673.88 673.15 C671.19 681.80 676.13 688.57 684.50 687.69 C694.31 686.67 716.34 670.15 745.35 642.08 C764.19 623.84 764.59 623.42 767.20 619.08 C771.67 611.65 791.65 581.24 806.03 560.00 C806.96 558.62 810.82 552.83 814.61 547.11 C818.40 541.40 824.99 531.50 829.26 525.11 C840.93 507.66 842.78 504.28 842.23 501.41 C841.27 496.38 838.43 495.66 821.95 496.24 C813.71 496.53 806.76 496.43 806.50 496.00 C806.24 495.58 807.58 491.86 809.48 487.74 L812.94 480.26 L826.72 479.56 C834.30 479.18 844.10 478.97 848.50 479.10 C858.02 479.39 861.68 477.88 865.12 472.27 C874.37 457.18 898.35 421.88 899.93 421.04 C901.01 420.46 908.29 420.00 916.43 420.00 C931.44 420.00 932.71 420.38 929.62 423.92 C925.54 428.61 897.00 472.23 897.00 473.78 C897.00 474.79 897.62 476.46 898.37 477.50 C899.63 479.21 901.34 479.38 918.12 479.44 C939.20 479.51 938.10 478.83 933.84 489.19 C932.36 492.79 930.77 495.08 929.50 495.42 C928.40 495.73 917.96 495.98 906.29 495.99 L885.08 496.00 L881.29 499.76 C879.21 501.83 872.55 510.91 866.50 519.94 C860.45 528.97 852.20 541.10 848.16 546.90 C844.12 552.69 839.70 559.48 838.33 561.97 C836.96 564.46 834.61 568.08 833.12 570.00 C831.62 571.92 829.32 575.30 828.00 577.50 C825.65 581.43 818.14 592.78 790.30 634.50 C770.79 663.73 770.07 665.44 773.54 673.75 C775.80 679.15 777.76 680.87 783.59 682.57 C788.48 683.99 789.35 683.95 797.05 681.99 C814.16 677.62 831.32 666.51 858.00 642.54 C863.23 637.84 869.56 632.31 872.08 630.25 C874.59 628.19 879.77 622.28 883.58 617.12 C892.57 604.93 912.22 584.93 923.00 577.01 C937.36 566.45 956.30 558.11 973.16 554.93 C984.65 552.76 1000.54 556.26 1009.88 563.03 C1012.52 564.94 1015.04 568.12 1017.02 572.03 C1022.03 581.96 1026.77 582.18 1033.88 572.80 C1041.94 562.18 1039.76 563.19 1056.23 562.41 C1068.93 561.81 1071.03 561.92 1071.54 563.24 C1072.09 564.68 1069.91 568.12 1052.54 593.24 C1018.21 642.89 1005.72 661.44 1004.28 664.87 C1003.33 667.14 1002.95 670.37 1003.23 673.74 C1004.38 687.67 1020.18 691.08 1039.09 681.49 C1057.09 672.36 1089.35 645.12 1115.77 616.73 L1122.03 610.00 L1128.02 610.00 C1132.69 610.00 1134.00 610.33 1134.00 611.51 C1134.00 613.88 1122.77 627.27 1108.53 641.86 C1074.93 676.30 1040.99 700.30 1010.00 711.52 C995.87 716.64 974.61 715.72 968.18 709.71 C964.37 706.15 963.59 703.98 962.96 695.12 C962.49 688.53 961.96 686.45 960.49 685.37 C957.01 682.82 953.61 683.77 946.91 689.16 C924.69 707.03 904.08 715.06 886.14 712.83 C876.94 711.69 869.40 708.36 865.21 703.59 C859.81 697.43 858.71 694.31 858.36 684.09 C857.96 672.72 857.66 671.62 854.48 670.18 C851.18 668.67 847.92 669.98 841.55 675.39 C838.77 677.74 835.15 680.53 833.50 681.58 C831.85 682.62 828.62 684.90 826.32 686.63 C821.88 689.97 801.19 702.39 794.50 705.73 C787.18 709.38 771.60 713.84 764.00 714.47 C750.24 715.60 740.20 711.90 735.55 703.99 C733.91 701.20 733.46 698.55 733.32 690.76 C733.21 685.40 732.83 680.54 732.47 679.95 C732.10 679.36 730.67 678.44 729.28 677.92 C726.31 676.79 720.66 679.66 712.61 686.41 C676.78 716.40 642.18 727.01 628.73 712.12 C624.61 707.56 623.55 703.74 624.45 696.65 C625.58 687.68 629.41 681.74 645.50 663.98 C671.36 635.45 675.32 628.83 672.91 618.11 C670.83 608.85 666.35 604.00 659.87 604.00 C655.54 604.00 653.96 605.34 641.52 619.53 C612.61 652.53 569.29 693.33 552.42 703.46 C534.68 714.12 524.90 717.89 512.92 718.69 C502.88 719.37 496.57 717.74 490.80 712.98 C483.73 707.16 482.05 693.72 487.13 683.74 C489.40 679.28 497.37 668.70 504.36 660.86 C519.12 644.31 537.25 619.54 540.12 612.00 C548.88 589.02 535.89 574.19 512.98 581.00 C503.59 583.80 497.86 586.67 486.50 594.30 C471.69 604.24 459.15 614.26 447.24 625.70 C437.44 635.10 435.97 636.92 435.99 639.72 C435.99 641.48 435.36 644.86 434.58 647.22 C432.28 654.19 417.85 708.61 413.50 726.75 C413.18 728.07 412.20 729.00 411.12 729.00 C409.75 729.00 409.39 728.42 409.70 726.75 Z M935.34 680.14 C944.17 675.66 951.99 669.72 963.83 658.50 C972.62 650.16 979.85 641.60 994.95 621.64 C1010.38 601.25 1013.42 594.34 1010.98 585.21 C1009.17 578.39 1007.58 576.33 1001.90 573.45 C995.09 570.00 988.91 569.39 981.03 571.41 C967.35 574.92 952.53 584.33 938.48 598.44 C916.64 620.38 898.95 651.03 899.02 666.80 C899.06 674.74 903.33 681.57 910.00 684.34 C910.83 684.68 915.01 684.82 919.29 684.64 C926.12 684.37 928.10 683.81 935.34 680.14 Z M911.65 672.17 C909.83 670.16 909.36 662.51 911.00 661.50 C911.55 661.16 912.00 659.55 912.00 657.91 C912.00 655.10 916.20 645.64 919.93 640.06 C920.87 638.65 924.30 633.45 927.55 628.50 C938.15 612.36 958.95 593.07 973.75 585.65 C988.00 578.51 1001.00 580.58 1001.00 589.99 C1001.00 592.77 995.79 603.69 993.60 605.50 C992.94 606.05 988.60 611.67 983.95 618.00 C968.71 638.76 948.73 659.20 935.25 667.84 C925.99 673.78 914.94 675.80 911.65 672.17 Z M321.62 667.45 C341.26 664.03 365.55 650.65 391.63 628.89 C399.72 622.13 399.77 622.07 401.53 614.80 C402.50 610.79 404.33 604.01 405.60 599.73 C406.87 595.46 408.19 589.39 408.55 586.23 C409.11 581.28 408.90 580.13 407.02 577.75 C405.82 576.22 403.86 575.00 402.63 575.00 C401.40 575.00 399.97 574.60 399.45 574.12 C398.93 573.63 392.70 571.78 385.61 569.99 C373.06 566.83 372.31 566.76 356.61 567.26 C338.75 567.82 331.67 569.17 317.56 574.66 C304.29 579.83 293.72 586.45 285.08 595.00 C276.02 603.96 271.48 611.35 268.26 622.34 C266.36 628.82 266.00 631.77 266.50 636.64 C267.73 648.55 275.25 659.58 285.11 663.94 C296.83 669.11 306.67 670.06 321.62 667.45 Z M297.73 656.91 C287.59 654.52 279.89 647.35 277.90 638.44 C273.57 619.10 291.87 596.97 322.18 584.91 C330.13 581.74 349.47 578.04 358.18 578.02 C370.52 577.99 380.78 579.72 396.66 584.52 C397.46 584.76 396.80 588.91 394.48 598.18 C392.65 605.51 390.89 612.62 390.57 614.00 C389.43 618.99 358.59 640.82 340.50 649.45 C325.14 656.78 309.08 659.58 297.73 656.91 Z" fill="black"/></svg>